<?xml version="1.0" standalone="no"?>
<!DOCTYPE svg PUBLIC "-//W3C//DTD SVG 20010904//EN"
 "http://www.w3.org/TR/2001/REC-SVG-20010904/DTD/svg10.dtd">
<svg version="1.0" xmlns="http://www.w3.org/2000/svg"
 width="295.000000pt" height="300.000000pt" viewBox="0 0 295.000000 300.000000"
 preserveAspectRatio="xMidYMid meet">

<g transform="translate(0.000000,300.000000) scale(0.100000,-0.100000)"
fill="#000000" stroke="none">
<path d="M1355 2994 c-493 -50 -918 -327 -1161 -756 -239 -422 -254 -969 -37
-1403 323 -645 1014 -961 1702 -779 216 58 451 188 603 334 72 70 77 139 15
206 -23 26 -43 37 -73 41 -49 6 -84 -10 -154 -72 -107 -95 -247 -174 -398
-225 -425 -142 -908 -28 -1214 286 l-58 59 308 497 c169 273 310 497 315 497
4 1 7 -120 7 -269 0 -156 5 -290 11 -320 13 -62 63 -138 107 -164 46 -26 125
-26 178 2 71 37 134 120 334 445 107 174 197 317 200 317 3 0 5 -84 6 -188 1
-203 12 -269 61 -365 38 -75 116 -153 192 -190 62 -30 72 -32 177 -32 107 0
112 1 186 38 142 70 242 212 274 389 12 61 14 119 10 216 -17 392 -167 734
-441 1007 -213 213 -467 350 -750 405 -102 19 -317 32 -400 24z m226 -275
c248 -25 453 -109 647 -265 293 -235 469 -627 450 -1000 -4 -79 -10 -104 -34
-152 -40 -78 -97 -117 -169 -117 -67 0 -101 23 -135 91 -24 48 -25 56 -30 319
l-5 270 -30 60 c-43 85 -89 118 -169 123 -56 4 -71 1 -116 -24 -92 -50 -127
-96 -366 -486 -76 -125 -142 -228 -146 -228 -4 0 -8 161 -10 358 l-3 358 -26
49 c-58 113 -185 127 -280 31 -19 -20 -195 -292 -390 -606 -306 -493 -356
-567 -367 -553 -6 9 -26 53 -43 97 -221 574 -5 1207 518 1518 168 100 349 152
579 167 12 0 68 -4 125 -10z"/>
</g>
</svg>
